<svg width="287" height="648" viewBox="0 0 287 648" fill="none" xmlns="http://www.w3.org/2000/svg">
<g opacity="0.3" clip-path="url(#clip0_69_109)">
<path d="M205.119 466.536L206.176 467.622L468.378 205.75L467.29 204.663L205.119 466.536Z" fill="#AAB3DB"/>
<path d="M252.622 568.316L253.71 569.372L515.881 307.5L514.823 306.413L252.622 568.316Z" fill="#AAB3DB"/>
<path d="M131.751 6.17576L132.839 5.11933L395.01 266.992L393.953 268.048L131.751 6.17576Z" fill="#AAB3DB"/>
<path d="M0.000724798 124.196L1.08852 123.139L263.26 385.012L262.202 386.068L0.000724798 124.196Z" fill="#AAB3DB"/>
<path d="M150.486 109.193L151.574 108.106L413.745 370.009L412.687 371.065L150.486 109.193Z" fill="#AAB3DB"/>
<path d="M32.3337 528.232L33.4215 529.288L295.593 267.416L294.535 266.359L32.3337 528.232Z" fill="#AAB3DB"/>
<path d="M88.5383 135.935L89.6261 134.878L351.797 396.751L350.74 397.837L88.5383 135.935Z" fill="#AAB3DB"/>
</g>
<defs>
<clipPath id="clip0_69_109">
<rect width="425" height="648" fill="white" transform="translate(425 648) rotate(-180)"/>
</clipPath>
</defs>
</svg>
