<svg width="46" height="36" viewBox="0 0 46 36" fill="none" xmlns="http://www.w3.org/2000/svg">
<path d="M19.05 9.7811C18.0974 9.21185 16.8765 9.89993 16.8765 11.0154V24.4321C16.8765 25.5534 18.0993 26.2319 19.05 25.6684L30.2989 18.9696C31.2342 18.4118 31.2323 17.0587 30.3008 16.499L19.05 9.7811ZM19.7515 21.904V13.5474L26.7569 17.7314L19.7515 21.904Z" fill="white"/>
<path d="M38.1493 0.993312C29.2311 -0.331104 16.7728 -0.331104 7.85067 0.993312C4.28183 1.52231 1.47008 4.32448 0.85675 7.96231C-0.285583 14.7147 -0.285583 20.735 0.85675 27.4855C1.47008 31.1252 4.28183 33.9255 7.85067 34.4545C12.3203 35.1176 17.6717 35.4492 23.0211 35.4492C28.3609 35.4492 33.6988 35.1196 38.1512 34.4564C41.7163 33.9274 44.5261 31.1271 45.1432 27.4874C46.2856 20.735 46.2856 14.7128 45.1432 7.9604C44.5299 4.32448 41.7182 1.52231 38.1493 0.993312ZM42.3085 27.0082C41.9002 29.4156 40.0602 31.2671 37.7277 31.6121C29.0682 32.8981 16.9548 32.8981 8.27233 31.6101C5.93783 31.2632 4.09592 29.4136 3.68958 27.0063C2.58942 20.5011 2.58942 14.9486 3.68958 8.43956C4.09783 6.03223 5.93783 4.18456 8.27425 3.83573C12.6097 3.19365 17.8058 2.87165 22.9981 2.87165C28.1942 2.87165 33.3903 3.19365 37.7257 3.83573C40.0602 4.18265 41.9022 6.03223 42.3085 8.43956C43.4087 14.9486 43.4087 20.5011 42.3085 27.0082Z" fill="white"/>
</svg>
