<svg width="37" height="37" viewBox="0 0 37 37" fill="none" xmlns="http://www.w3.org/2000/svg">
<g clip-path="url(#clip0_69_329)">
<path d="M27.7503 0H9.25075C4.16383 0 0.000976562 4.16285 0.000976562 9.24977V27.7502C0.000976562 32.8358 4.16383 37 9.25075 37H27.7503C32.8372 37 37.0001 32.8358 37.0001 27.7502V9.24977C37.0001 4.16285 32.8372 0 27.7503 0ZM33.9167 27.7502C33.9167 31.1495 31.1515 33.9166 27.7503 33.9166H9.25075C5.85101 33.9166 3.08438 31.1495 3.08438 27.7502V9.24977C3.08438 5.84958 5.85101 3.08341 9.25075 3.08341H27.7503C31.1515 3.08341 33.9167 5.84958 33.9167 9.24977V27.7502Z" fill="white"/>
<path d="M28.5219 10.7913C29.799 10.7913 30.8344 9.75595 30.8344 8.47883C30.8344 7.2017 29.799 6.16638 28.5219 6.16638C27.2448 6.16638 26.2095 7.2017 26.2095 8.47883C26.2095 9.75595 27.2448 10.7913 28.5219 10.7913Z" fill="white"/>
<path d="M18.4998 9.24976C13.3902 9.24976 9.25 13.3904 9.25 18.4995C9.25 23.6068 13.3902 27.7502 18.4998 27.7502C23.6079 27.7502 27.7495 23.6068 27.7495 18.4995C27.7495 13.3904 23.6079 9.24976 18.4998 9.24976ZM18.4998 24.6668C15.0944 24.6668 12.3334 21.9058 12.3334 18.4995C12.3334 15.0933 15.0944 12.3332 18.4998 12.3332C21.9051 12.3332 24.6661 15.0933 24.6661 18.4995C24.6661 21.9058 21.9051 24.6668 18.4998 24.6668Z" fill="white"/>
</g>
<defs>
<clipPath id="clip0_69_329">
<rect width="37" height="37" fill="white"/>
</clipPath>
</defs>
</svg>
