<svg width="21" height="37" viewBox="0 0 21 37" fill="none" xmlns="http://www.w3.org/2000/svg">
<path d="M12.9714 37H7.04629C6.05662 37 5.25155 36.1949 5.25155 35.2052V21.8406H1.79474C0.805065 21.8406 0 21.0352 0 20.0458V14.319C0 13.3293 0.805065 12.5243 1.79474 12.5243H5.25155V9.65649C5.25155 6.81301 6.14441 4.39381 7.83329 2.66084C9.5298 0.919975 11.9007 0 14.6896 0L19.2084 0.00733944C20.1963 0.0090332 21 0.814117 21 1.80212V7.11929C21 8.10899 20.1952 8.91408 19.2058 8.91408L16.1634 8.91521C15.2355 8.91521 14.9993 9.10123 14.9487 9.15826C14.8655 9.25282 14.7664 9.52015 14.7664 10.2583V12.524H18.9772C19.2942 12.524 19.6013 12.6022 19.8652 12.7495C20.4346 13.0677 20.7886 13.6692 20.7886 14.3193L20.7863 20.0461C20.7863 21.0352 19.9812 21.8403 18.9916 21.8403H14.7664V35.2052C14.7664 36.1949 13.961 37 12.9714 37ZM7.4206 34.8309H12.5971V20.8695C12.5971 20.2087 13.1348 19.6712 13.7953 19.6712H18.6173L18.6192 14.6934H13.7951C13.1345 14.6934 12.5971 14.1559 12.5971 13.495V10.2583C12.5971 9.4109 12.6832 8.44717 13.3228 7.72282C14.0957 6.84717 15.3137 6.74611 16.1628 6.74611L18.831 6.74498V2.17587L14.6879 2.1691C10.2059 2.1691 7.4206 5.03827 7.4206 9.65649V13.495C7.4206 14.1556 6.88314 14.6934 6.2226 14.6934H2.16905V19.6712H6.2226C6.88314 19.6712 7.4206 20.2087 7.4206 20.8695V34.8309Z" fill="white"/>
</svg>
