<svg width="17" height="13" viewBox="0 0 17 13" fill="none" xmlns="http://www.w3.org/2000/svg">
<path d="M14.875 0C16.0371 0 17 0.962891 17 2.125V10.625C17 11.8203 16.0371 12.75 14.875 12.75H2.125C0.929688 12.75 0 11.8203 0 10.625V2.125C0 0.962891 0.929688 0 2.125 0H14.875ZM2.125 1.0625C1.52734 1.0625 1.0625 1.56055 1.0625 2.125V3.32031L7.53711 8.20117C8.10156 8.63281 8.86523 8.63281 9.42969 8.20117L15.9375 3.35352V2.125C15.9375 1.56055 15.4395 1.0625 14.875 1.0625H2.125ZM15.9375 10.625V4.64844L10.0938 9.03125C9.5957 9.39648 9.03125 9.5957 8.5 9.5957C7.93555 9.5957 7.37109 9.39648 6.90625 9.03125L1.0625 4.64844V10.625C1.0625 11.2227 1.52734 11.6875 2.125 11.6875H14.875C15.4395 11.6875 15.9375 11.2227 15.9375 10.625Z" fill="#2E3192"/>
</svg>
