<svg width="12" height="20" viewBox="0 0 12 20" fill="none" xmlns="http://www.w3.org/2000/svg">
<path d="M3.45074 7.04288H1.85464C1.35475 7.04288 0.95 7.45794 0.95 7.96602V10.752C0.95 11.2599 1.35474 11.6752 1.85464 11.6752H3.45074V18.1269C3.45074 18.6349 3.85549 19.05 4.35538 19.05H7.17684C7.67673 19.05 8.08162 18.6349 8.08162 18.1269V11.675H10.0436C10.5435 11.675 10.9482 11.26 10.9482 10.7522C10.9482 10.7522 10.9482 10.7522 10.9482 10.7522L10.9493 7.96618V7.96616C10.9493 7.63222 10.7714 7.32285 10.4844 7.15905L10.4844 7.15904C10.3509 7.08287 10.196 7.04274 10.0368 7.04274H8.08162V5.99054C8.08162 5.81282 8.09332 5.69413 8.10918 5.61541C8.12522 5.53581 8.14464 5.50156 8.15632 5.48801L8.11845 5.45537C8.14251 5.42763 8.25502 5.33713 8.69686 5.33713L3.45074 7.04288ZM3.45074 7.04288V5.69775C3.45074 4.30415 3.87923 3.11402 4.69396 2.25995C5.51257 1.40178 6.65534 0.95 7.99505 0.95H7.99514L10.1469 0.953571L10.1468 1.00357L10.1469 0.953571C10.646 0.954445 11.05 1.36949 11.05 1.87671V4.46344C11.05 4.97149 10.6454 5.38657 10.1456 5.38658L3.45074 7.04288ZM6.9486 17.8948V11.1527C6.9486 10.8046 7.22606 10.5198 7.56921 10.5198H9.81538L9.81629 8.19812H7.56908C7.22591 8.19812 6.9486 7.91323 6.9486 7.56516V5.99054C6.9486 5.5774 6.98885 5.09169 7.30637 4.72435M6.9486 17.8948L7.34419 4.75705M6.9486 17.8948H4.58362M6.9486 17.8948H4.58362M7.30637 4.72435L7.34419 4.75705M7.30637 4.72435C7.30636 4.72436 7.30636 4.72436 7.30636 4.72436L7.34419 4.75705M7.30637 4.72435C7.69032 4.27994 8.29185 4.23189 8.69657 4.23189L8.69659 4.28189M7.34419 4.75705C7.71223 4.33105 8.29225 4.28189 8.69659 4.28189M8.69659 4.28189V4.23189M8.69659 4.28189V4.23189M8.69659 4.23189L9.91712 4.23136V2.10845L7.99425 2.10524C7.99422 2.10524 7.99419 2.10524 7.99416 2.10524C6.93828 2.10525 6.08715 2.45024 5.49981 3.06842C4.91218 3.68691 4.58362 4.58416 4.58362 5.69775V7.56516C4.58362 7.91309 4.30632 8.19812 3.96314 8.19812H2.08288V10.5198H3.96314C4.30631 10.5198 4.58362 10.8047 4.58362 11.1527V17.8948M8.69659 4.23189L4.58362 17.8948M9.86631 8.14812H9.81631L9.86629 8.19812L9.86631 8.14812Z" fill="#2E3192" stroke="#2E3192" stroke-width="0.1"/>
</svg>
