<svg width="17" height="17" viewBox="0 0 17 17" fill="none" xmlns="http://www.w3.org/2000/svg">
<g clip-path="url(#clip0_69_343)">
<path d="M12.7502 0H4.25038C1.91315 0 0.000488281 1.91266 0.000488281 4.2499V12.7501C0.000488281 15.0867 1.91315 17 4.25038 17H12.7502C15.0874 17 17.0001 15.0867 17.0001 12.7501V4.2499C17.0001 1.91266 15.0874 0 12.7502 0ZM15.5834 12.7501C15.5834 14.3119 14.3129 15.5833 12.7502 15.5833H4.25038C2.68834 15.5833 1.41719 14.3119 1.41719 12.7501V4.2499C1.41719 2.68764 2.68834 1.4167 4.25038 1.4167H12.7502C14.3129 1.4167 15.5834 2.68764 15.5834 4.2499V12.7501Z" fill="#2E3192"/>
<path d="M13.105 4.9582C13.6917 4.9582 14.1674 4.48251 14.1674 3.89573C14.1674 3.30894 13.6917 2.83325 13.105 2.83325C12.5182 2.83325 12.0425 3.30894 12.0425 3.89573C12.0425 4.48251 12.5182 4.9582 13.105 4.9582Z" fill="#2E3192"/>
<path d="M8.4999 4.24988C6.15224 4.24988 4.25 6.15233 4.25 8.49977C4.25 10.8463 6.15224 12.7501 8.4999 12.7501C10.8469 12.7501 12.7498 10.8463 12.7498 8.49977C12.7498 6.15233 10.8469 4.24988 8.4999 4.24988ZM8.4999 11.3334C6.93528 11.3334 5.6667 10.0648 5.6667 8.49977C5.6667 6.93474 6.93528 5.66658 8.4999 5.66658C10.0645 5.66658 11.3331 6.93474 11.3331 8.49977C11.3331 10.0648 10.0645 11.3334 8.4999 11.3334Z" fill="#2E3192"/>
</g>
<defs>
<clipPath id="clip0_69_343">
<rect width="17" height="17" fill="white"/>
</clipPath>
</defs>
</svg>
