<svg width="15" height="20" viewBox="0 0 15 20" fill="none" xmlns="http://www.w3.org/2000/svg">
<path d="M10.625 7.511C10.625 9.27139 9.21875 10.6406 7.5 10.6406C5.74219 10.6406 4.375 9.27139 4.375 7.511C4.375 5.78973 5.74219 4.38142 7.5 4.38142C9.21875 4.38142 10.625 5.78973 10.625 7.511ZM7.5 9.38875C8.51562 9.38875 9.375 8.56724 9.375 7.511C9.375 6.49389 8.51562 5.63325 7.5 5.63325C6.44531 5.63325 5.625 6.49389 5.625 7.511C5.625 8.56724 6.44531 9.38875 7.5 9.38875ZM15 7.511C15 10.9535 10.4297 17.0171 8.39844 19.5599C7.92969 20.1467 7.03125 20.1467 6.5625 19.5599C4.53125 17.0171 0 10.9535 0 7.511C0 3.3643 3.32031 0 7.5 0C11.6406 0 15 3.3643 15 7.511ZM7.5 1.25183C4.02344 1.25183 1.25 4.06846 1.25 7.511C1.25 8.13692 1.44531 8.95844 1.875 10.0147C2.30469 11.0318 2.89063 12.1271 3.59375 13.2225C4.92188 15.3741 6.48438 17.4474 7.5 18.6993C8.47656 17.4474 10.0391 15.3741 11.3672 13.2225C12.0703 12.1271 12.6563 11.0318 13.0859 10.0147C13.5156 8.95844 13.75 8.13692 13.75 7.511C13.75 4.06846 10.9375 1.25183 7.5 1.25183Z" fill="#2E3192"/>
</svg>
