<svg width="22" height="16" viewBox="0 0 22 16" fill="none" xmlns="http://www.w3.org/2000/svg">
<path d="M8.73434 4.38911C8.29758 4.13367 7.73779 4.44244 7.73779 4.943V10.9635C7.73779 11.4667 8.29846 11.7711 8.73434 11.5183L13.892 8.51231C14.3208 8.26203 14.3199 7.65481 13.8928 7.40367L8.73434 4.38911ZM9.05598 9.82908V6.07916L12.268 7.9567L9.05598 9.82908Z" fill="#2E3192"/>
<path d="M17.4914 0.445733C13.4024 -0.148578 7.69029 -0.148578 3.59952 0.445733C1.96322 0.683113 0.674031 1.94054 0.392819 3.57296C-0.13094 6.603 -0.13094 9.30449 0.392819 12.3337C0.674031 13.9669 1.96322 15.2235 3.59952 15.4609C5.64886 15.7585 8.10244 15.9073 10.5551 15.9073C13.0034 15.9073 15.4509 15.7593 17.4923 15.4618C19.1268 15.2244 20.4152 13.9678 20.6981 12.3345C21.2219 9.30449 21.2219 6.60214 20.6981 3.5721C20.4169 1.94054 19.1277 0.683113 17.4914 0.445733ZM19.3984 12.1195C19.2112 13.1998 18.3676 14.0306 17.2981 14.1854C13.3277 14.7625 7.77377 14.7625 3.79285 14.1845C2.72249 14.0289 1.87797 13.1989 1.69167 12.1186C1.18724 9.19956 1.18724 6.70793 1.69167 3.78712C1.87885 2.70687 2.72249 1.87776 3.79373 1.72122C5.78155 1.4331 8.16395 1.2886 10.5446 1.2886C12.927 1.2886 15.3094 1.4331 17.2972 1.72122C18.3676 1.8769 19.2121 2.70687 19.3984 3.78712C19.9028 6.70793 19.9028 9.19956 19.3984 12.1195Z" fill="#2E3192"/>
</svg>
