<svg width="17" height="17" viewBox="0 0 17 17" fill="none" xmlns="http://www.w3.org/2000/svg">
<path d="M4.42708 17H4.32785C3.64522 17 3.08987 16.4501 3.08987 15.7742C3.08987 15.4664 3.213 15.1818 3.41806 14.9636H2.56539C2.22496 14.9636 1.89579 14.8235 1.6623 14.5792C1.42681 14.3328 1.30761 14.0108 1.32662 13.6725C1.35341 13.2222 1.63132 12.8398 2.02554 12.6467L1.84369 12.6246C1.50489 12.5869 1.20403 12.4198 0.996329 12.1538C0.789007 11.8883 0.701979 11.5577 0.751245 11.223L0.752405 11.2157C0.852418 10.6237 1.38677 10.194 2.02299 10.194H2.13622L2.61478 10.253C2.55711 10.2001 2.50423 10.1424 2.45674 10.0803C2.25475 9.81629 2.17102 9.49751 2.221 9.18273L2.22157 9.17932C2.32251 8.58188 2.83771 8.14826 3.44664 8.14826C3.52578 8.14826 3.59187 8.15744 3.65018 8.16554L3.69152 8.17117L7.06061 8.88563L4.96987 6.60736C4.93917 6.57576 4.91901 6.54552 4.90639 6.52544L4.89752 6.5138C4.49112 5.98074 4.59991 5.21382 5.13982 4.80366C5.38685 4.61404 5.68994 4.53771 5.98939 4.56819L5.47725 3.89534C5.26996 3.62244 5.18707 3.28876 5.24363 2.95549C5.29988 2.62403 5.48701 2.33688 5.77064 2.14664C6.03962 1.96172 6.36894 1.89702 6.69832 1.96447C6.81291 1.98798 6.92381 2.02659 7.02804 2.07925L6.93279 1.91552C6.75996 1.62677 6.71291 1.27713 6.80372 0.955825C6.89528 0.631889 7.11184 0.366135 7.41354 0.207512L7.41577 0.206347C7.9991 -0.0951178 8.74716 0.129401 9.0833 0.706876L9.31102 1.09937C9.35218 0.693831 9.57624 0.332101 9.94042 0.143346C10.2436 -0.0156828 10.5892 -0.0434321 10.9135 0.0653056C11.235 0.173072 11.5007 0.410371 11.6427 0.716478L13.4124 4.4824L14.2097 6.01273L14.1138 4.25663C14.0957 3.91799 14.2137 3.59586 14.4461 3.34918C14.6785 3.10244 14.9949 2.96334 15.3371 2.9575L15.3433 2.95745C15.6678 2.95745 15.976 3.08647 16.211 3.32071C16.4373 3.54624 16.5722 3.84612 16.59 4.1635L16.7279 6.58041C16.7573 7.04697 16.7212 7.52755 16.6207 8.00877L16.6198 8.01306L16.1782 10.0025C16.0833 10.4527 15.7991 10.8186 15.3779 11.0332L14.251 11.6015L13.6178 15.195C13.5143 15.7313 13.0764 16.1343 12.528 16.1977L12.5243 16.1981L7.67748 16.7076L4.42708 17ZM1.45675 11.3286C1.43679 11.4708 1.47371 11.6104 1.5609 11.722C1.64966 11.8357 1.77873 11.9071 1.92433 11.923L1.92854 11.9235L6.71503 12.5054L6.67236 13.2088L2.61174 13.2181C2.31178 13.2181 2.05517 13.44 2.03894 13.7128C2.03098 13.8543 2.08128 13.99 2.18062 14.094C2.28142 14.1994 2.41805 14.2575 2.56537 14.2575H6.67955L6.72318 14.9609L4.33529 15.2518C4.03648 15.2872 3.80338 15.5166 3.80338 15.7742C3.80338 16.0608 4.03866 16.2939 4.32787 16.2939H4.39474L7.61027 16.0047L12.4469 15.4962C12.6827 15.4682 12.871 15.2953 12.9165 15.065L13.5782 11.31C13.6218 11.0754 13.5522 10.8251 13.3919 10.6405L12.05 9.09516C11.7723 8.77636 11.4574 8.50125 11.1146 8.27791L9.07348 6.93172C8.96809 6.86233 8.85208 6.82715 8.72868 6.82715C8.56313 6.82715 8.41066 6.90115 8.32083 7.02512L8.31609 7.03149C8.23022 7.14455 8.19579 7.28296 8.21916 7.4212C8.24337 7.56431 8.32549 7.68916 8.45038 7.77274L10.1584 8.90797C10.3498 9.03445 10.4535 9.23796 10.4461 9.45473L11.371 10.0699L10.2688 9.88465C10.1488 10.0137 9.9794 10.0909 9.79473 10.0909C9.75131 10.0909 9.71573 10.0841 9.69288 10.0788L7.67091 9.73712L3.56814 8.86709L3.55106 8.86474C3.50748 8.85869 3.476 8.85431 3.44664 8.85431C3.18833 8.85431 2.96947 9.03915 2.92559 9.29403C2.88084 9.58326 3.13045 9.82698 3.3983 9.89576L3.40101 9.89646L6.62593 10.7513L6.4895 11.4427L2.09193 10.9H2.02303C1.73822 10.9 1.50071 11.08 1.45675 11.3286ZM14.1523 9.98912C14.33 10.1914 14.4564 10.4212 14.5282 10.6692L15.0527 10.4047C15.2779 10.29 15.4302 10.0953 15.4801 9.85706L15.4809 9.85299L15.9224 7.86383C16.0098 7.44438 16.0412 7.02706 16.0157 6.62342L16.0156 6.62129L15.8776 4.20316C15.8609 3.90662 15.6228 3.6653 15.3462 3.66357C15.2007 3.66687 15.0664 3.72613 14.9679 3.83068C14.8688 3.93591 14.8185 4.07379 14.8263 4.21894L14.9374 6.25499C14.9546 6.55866 14.7572 6.82766 14.4574 6.90856C14.1563 6.98981 13.8461 6.8552 13.7031 6.58118L12.7715 4.79326L10.9944 1.01148C10.9331 0.879038 10.8231 0.780521 10.6846 0.734078C10.548 0.688288 10.4022 0.700132 10.2741 0.767458L10.2719 0.768623C10.014 0.90188 9.96739 1.2485 10.0712 1.50663L11.3202 4.56936L10.6799 4.87725L8.4648 1.0589C8.32008 0.810265 7.99165 0.706222 7.74726 0.831624C7.6202 0.898755 7.52916 1.01037 7.49083 1.14603C7.45153 1.28504 7.47158 1.4309 7.54728 1.55671L7.54991 1.56115L9.95655 5.69762L9.47822 6.01103C9.52917 6.03772 9.57855 6.06724 9.62613 6.09945L11.6631 7.44355C12.0798 7.71479 12.4659 8.05084 12.8105 8.44238L12.8122 8.4443L14.1523 9.98912ZM7.93451 8.77629L8.21843 8.82399L7.88352 8.60123C7.53949 8.36686 7.30115 8.00153 7.22957 7.59894C7.1686 7.24584 7.22942 6.89368 7.40093 6.58819L6.3107 5.47103C6.12819 5.28025 5.80371 5.18729 5.57669 5.36191L5.57469 5.36343C5.34736 5.53578 5.29715 5.85403 5.45959 6.07845C5.47578 6.09747 5.49053 6.11765 5.50372 6.13882L7.67639 8.50633L7.93451 8.77629ZM6.44596 2.64595C6.34999 2.64595 6.25636 2.67219 6.17672 2.72723L6.17198 2.73046C6.05077 2.81137 5.97097 2.93282 5.94728 3.07245C5.92343 3.21296 5.95898 3.35446 6.04738 3.47082L7.99118 6.02454C8.21555 5.89693 8.46986 5.82991 8.72865 5.83019C8.90012 5.83019 9.067 5.8558 9.22447 5.90554L6.91864 2.88655C6.79922 2.73113 6.61884 2.64595 6.44596 2.64595Z" fill="white"/>
</svg>
