<svg width="18" height="17" viewBox="0 0 18 17" fill="none" xmlns="http://www.w3.org/2000/svg">
<g clip-path="url(#clip0_69_147)">
<path d="M9.22797 0.000976563C8.92324 0.000976563 8.61873 0.0173579 8.31575 0.0500143C8.03805 0.0783803 7.76375 0.124901 7.49314 0.181349C7.44076 0.192305 7.38836 0.203864 7.33599 0.215955C5.74157 0.57897 4.28568 1.39417 3.14292 2.56381C3.03666 2.67274 2.93263 2.78489 2.8309 2.90023C-0.256033 6.44414 0.114427 11.8195 3.65837 14.9064C7.05123 17.8618 12.1584 17.6651 15.3139 14.4577C15.4204 14.3488 15.5244 14.2366 15.626 14.1213C16.9883 12.5699 17.739 10.5754 17.7378 8.51075C17.7378 3.81089 13.9278 0.000941105 9.22797 0.000976563ZM3.52104 2.9893C3.56586 2.94278 3.61238 2.89825 3.65805 2.85314C3.71081 2.80123 3.76329 2.74904 3.81718 2.69883C3.86456 2.65458 3.91335 2.61203 3.96185 2.56892C4.0166 2.52041 4.07106 2.4719 4.12722 2.4251C4.17658 2.3834 4.22736 2.34341 4.27785 2.30313C4.33458 2.25774 4.39131 2.21236 4.44975 2.16867C4.50137 2.12981 4.55385 2.09208 4.60661 2.05521C4.66533 2.01323 4.72433 1.97011 4.78418 1.93096C4.83779 1.89466 4.89197 1.85948 4.94643 1.82459C5.00714 1.78573 5.06813 1.74744 5.12968 1.71113C5.1851 1.67805 5.24087 1.6455 5.29704 1.61355C5.35983 1.57781 5.42288 1.54292 5.48624 1.50888C5.54297 1.47863 5.5997 1.44903 5.65644 1.42009C5.72111 1.38747 5.78635 1.35599 5.85188 1.32507C5.90861 1.29812 5.96761 1.27117 6.02605 1.24564C6.09271 1.21728 6.16022 1.18891 6.22773 1.16054C6.28645 1.13643 6.34488 1.11289 6.40416 1.0902C6.47281 1.0641 6.54231 1.0397 6.6118 1.01531C6.67109 0.994603 6.73037 0.973895 6.79051 0.954323C6.86114 0.93163 6.93234 0.910639 7.00382 0.889932C7.06367 0.872629 7.12296 0.854758 7.18309 0.83859C7.20607 0.832633 7.22905 0.82781 7.25202 0.821854C6.41239 1.63713 5.7893 2.64894 5.43915 3.76568C4.76589 3.58811 4.11411 3.33728 3.49551 3.01767C3.50487 3.00774 3.51282 2.99781 3.52104 2.9893ZM3.11314 3.44599C3.79453 3.81518 4.51708 4.10274 5.26584 4.30265C4.89878 5.57898 4.7061 6.89909 4.69313 8.22709H1.29204C1.35384 6.47587 1.99424 4.79455 3.11314 3.44599ZM3.11314 13.5755C1.99431 12.2269 1.35392 10.5456 1.29204 8.7944H4.69313C4.7061 10.1224 4.89875 11.4425 5.26584 12.7188C4.51712 12.9188 3.79456 13.2063 3.11314 13.5755ZM7.18139 16.184C7.12409 16.1696 7.06481 16.1508 7.00581 16.1335C6.93404 16.1126 6.86199 16.0916 6.79108 16.0686C6.73122 16.0493 6.67222 16.0286 6.61322 16.0079C6.54344 15.9838 6.47366 15.9591 6.40473 15.9327C6.34573 15.9103 6.28758 15.8868 6.22915 15.8629C6.16135 15.8346 6.09356 15.8062 6.02633 15.7778C5.96846 15.7523 5.91088 15.726 5.85358 15.699C5.78749 15.6678 5.72168 15.636 5.65502 15.6031C5.59829 15.5747 5.54155 15.5464 5.48482 15.5154C5.42071 15.4811 5.35717 15.446 5.29363 15.4096C5.2369 15.3782 5.18301 15.3458 5.12826 15.3129C5.06586 15.2755 5.00459 15.2369 4.94332 15.1975C4.88942 15.1631 4.83552 15.1283 4.78248 15.0925C4.72206 15.0517 4.66221 15.0091 4.60292 14.9666C4.55101 14.9294 4.4991 14.8922 4.44804 14.8531C4.38933 14.8089 4.33174 14.7632 4.27444 14.7172C4.22424 14.6772 4.17431 14.6375 4.12524 14.5964C4.06851 14.5493 4.01376 14.5002 3.95873 14.4514C3.91051 14.4086 3.862 14.3663 3.81491 14.3227C3.76074 14.2722 3.70826 14.2197 3.6555 14.1678C3.60983 14.1227 3.56331 14.0781 3.51849 14.0319C3.51026 14.0231 3.50232 14.014 3.4941 14.0055C4.11265 13.6858 4.76443 13.4348 5.43773 13.2572C5.78795 14.3739 6.41101 15.3857 7.25061 16.2011C7.22763 16.1951 7.20437 16.1903 7.18139 16.184ZM8.94434 16.4308C7.73056 16.2584 6.66655 14.9915 5.99711 13.1208C6.96496 12.9041 7.95263 12.7878 8.94434 12.7739V16.4308ZM8.94434 12.2066C7.89232 12.2204 6.84472 12.3453 5.81897 12.5793C5.4628 11.3487 5.27491 10.0754 5.26045 8.7944H8.94434V12.2066ZM8.94434 8.22709H5.26045C5.27488 6.94604 5.46277 5.67283 5.81897 4.44221C6.84472 4.67612 7.89235 4.80107 8.94434 4.81494V8.22709ZM8.94434 4.24762C7.95259 4.23379 6.96496 4.11752 5.99711 3.9007C6.66655 2.02996 7.73056 0.763136 8.94434 0.590671V4.24762ZM15.3429 3.44599C16.4617 4.79458 17.1021 6.47591 17.164 8.22709H13.7629C13.7499 6.89909 13.5573 5.57898 13.1902 4.30265C13.9389 4.10263 14.6614 3.81511 15.3429 3.44599ZM11.2723 0.837171C11.3319 0.851922 11.3912 0.870643 11.4502 0.887946C11.522 0.908937 11.594 0.929928 11.6649 0.952905C11.7248 0.972193 11.7838 0.992901 11.8428 1.01361C11.9126 1.03772 11.9823 1.0624 12.0513 1.08878C12.1103 1.11119 12.1684 1.13473 12.2269 1.15856C12.2947 1.18692 12.3624 1.21529 12.4297 1.24366C12.4875 1.26919 12.5451 1.29546 12.6024 1.32251C12.6685 1.35372 12.7343 1.38549 12.801 1.41839C12.8577 1.44676 12.9144 1.47512 12.9712 1.50604C13.0353 1.54036 13.0988 1.57554 13.1624 1.61185C13.2191 1.64333 13.273 1.67567 13.3277 1.70858C13.3901 1.74602 13.4514 1.7846 13.5127 1.82402C13.5666 1.85835 13.6205 1.89324 13.6735 1.92898C13.7339 1.96983 13.7935 2.01209 13.8528 2.05464C13.905 2.0918 13.9569 2.12924 14.0082 2.1681C14.0667 2.21207 14.124 2.25774 14.1816 2.30369C14.2315 2.34341 14.2817 2.38312 14.3308 2.42453C14.3875 2.47162 14.4422 2.52069 14.4973 2.56948C14.5455 2.61232 14.594 2.65458 14.6411 2.69827C14.6953 2.74876 14.7477 2.80123 14.8005 2.85314C14.8462 2.89825 14.8927 2.94278 14.9375 2.98902C14.9457 2.99781 14.9537 3.00689 14.9619 3.0154C14.3434 3.33515 13.6916 3.58609 13.0183 3.76369C12.6674 2.64685 12.0435 1.63514 11.2031 0.820152C11.2261 0.826108 11.2494 0.830931 11.2723 0.837171ZM9.51166 0.590671C10.7254 0.763136 11.7895 2.02996 12.4589 3.9007C11.491 4.11742 10.5034 4.23368 9.51166 4.24762V0.590671ZM9.51166 4.81494C10.5637 4.80111 11.6113 4.67616 12.637 4.44221C12.9932 5.67283 13.1811 6.94604 13.1956 8.22709H9.51166V4.81494ZM9.51166 8.7944H13.1956C13.1811 10.0754 12.9932 11.3487 12.637 12.5793C11.6113 12.3454 10.5637 12.2204 9.51166 12.2066V8.7944ZM9.51166 16.4308V12.7739C10.5034 12.7877 11.491 12.904 12.4589 13.1208C11.7895 14.9915 10.7254 16.2584 9.51166 16.4308ZM14.935 14.0322C14.8901 14.0784 14.8439 14.123 14.7982 14.1681C14.7455 14.22 14.6927 14.2725 14.6385 14.3229C14.5914 14.3669 14.5429 14.408 14.4947 14.452C14.4397 14.5008 14.3849 14.5496 14.3288 14.5967C14.2791 14.6381 14.2286 14.6781 14.1782 14.7184C14.1214 14.7637 14.0647 14.8091 14.0063 14.8528C13.9546 14.8917 13.9022 14.9294 13.8494 14.9663C13.7907 15.0083 13.7317 15.0514 13.6718 15.0905C13.6182 15.1268 13.564 15.162 13.5096 15.1966C13.4489 15.2358 13.3877 15.2736 13.326 15.3101C13.2693 15.3433 13.2151 15.3756 13.1592 15.4077C13.0965 15.4434 13.0333 15.4783 12.9698 15.5123C12.913 15.5426 12.8563 15.5722 12.7996 15.6011C12.7349 15.6337 12.6696 15.6652 12.6041 15.6961C12.5474 15.7231 12.4884 15.75 12.43 15.7756C12.3633 15.8039 12.2958 15.8323 12.2283 15.8607C12.1696 15.8845 12.1111 15.9083 12.0521 15.9307C11.9829 15.9571 11.9134 15.9818 11.8436 16.0059C11.7846 16.0266 11.7256 16.0473 11.6658 16.0666C11.5949 16.0896 11.5239 16.1106 11.4516 16.1313C11.3923 16.1489 11.3328 16.1664 11.2729 16.1826C11.2499 16.1886 11.227 16.1934 11.204 16.1994C12.0436 15.3841 12.6667 14.3723 13.0168 13.2555C13.6901 13.4331 14.3419 13.6839 14.9605 14.0035C14.9511 14.0138 14.9432 14.0237 14.935 14.0322ZM15.3429 13.5755C14.6615 13.2063 13.9389 12.9188 13.1902 12.7188C13.5572 11.4425 13.7499 10.1224 13.7629 8.7944H17.164C17.1022 10.5456 16.4618 12.2269 15.3429 13.5755Z" fill="white"/>
</g>
<defs>
<clipPath id="clip0_69_147">
<rect width="17" height="17" fill="white" transform="translate(0.737793)"/>
</clipPath>
</defs>
</svg>
