<svg width="20" height="16" viewBox="0 0 20 16" fill="none" xmlns="http://www.w3.org/2000/svg">
<path d="M1.78943 10.7722L5.44814 10.8077V14.4308H1.78943V10.7722ZM8.54788 10.7722L12.2066 10.8077V14.4308H8.54788V10.7722ZM8.54814 14.46L8.54814 14.46L8.54814 14.46ZM12.2066 5.43126L8.54788 5.36022V1.77283H12.2066V5.43126ZM8.54814 1.7436C8.54815 1.74352 8.54815 1.74352 8.54814 1.74361L8.54814 1.7436ZM8.51867 1.77309C8.51858 1.7731 8.51857 1.7731 8.51865 1.77309L8.51867 1.77309ZM18.965 10.7721V14.359L15.3063 14.3945V10.7721H18.965ZM18.9789 9.94922H17.5471V8.08373C17.5471 7.96394 17.507 7.86023 17.4331 7.78635C17.3592 7.71246 17.2555 7.67231 17.1357 7.67231H10.7887V6.21823H12.2205C12.6818 6.21823 13.0294 5.87057 13.0294 5.40926V1.75897C13.0294 1.29766 12.6818 0.95 12.2205 0.95H8.53402C8.07271 0.95 7.72505 1.29766 7.72505 1.75897V5.4454C7.72505 5.90671 8.07271 6.25437 8.53402 6.25437H9.96582V7.67231H3.61879C3.499 7.67231 3.39529 7.71246 3.32141 7.78635C3.24752 7.86023 3.20737 7.96394 3.20737 8.08373V9.94922H1.77557C1.31426 9.94922 0.966602 10.2969 0.966602 10.7582V14.4446C0.966602 14.9059 1.31426 15.2536 1.77557 15.2536H5.462C5.92331 15.2536 6.27097 14.9059 6.27097 14.4446V10.7582C6.27097 10.2969 5.92331 9.94922 5.462 9.94922H4.0302V8.49514H9.96582V9.94922H8.53402C8.07271 9.94922 7.72505 10.2969 7.72505 10.7582V14.4446C7.72505 14.9059 8.07271 15.2536 8.53402 15.2536H12.2205C12.6818 15.2536 13.0294 14.9059 13.0294 14.4446V10.7582C13.0294 10.2969 12.6818 9.94922 12.2205 9.94922H10.7887V8.49514H16.7243V9.94922H15.2925C14.8312 9.94922 14.4835 10.2969 14.4835 10.7582V14.4446C14.4835 14.9059 14.8312 15.2536 15.2925 15.2536H18.9789C19.4402 15.2536 19.7879 14.9059 19.7879 14.4446V10.7582C19.7879 10.2953 19.4025 9.94922 18.9789 9.94922Z" fill="white" stroke="white" stroke-width="0.1"/>
</svg>
