<svg width="18" height="18" viewBox="0 0 18 18" fill="none" xmlns="http://www.w3.org/2000/svg">
<path d="M16.8085 15.806L11.9695 10.967C12.9068 9.80916 13.4712 8.33796 13.4712 6.73561C13.4712 3.02181 10.4494 0 6.73557 0C3.02178 0 0 3.02178 0 6.73557C0 10.4494 3.02181 13.4712 6.73561 13.4712C8.33796 13.4712 9.80916 12.9068 10.967 11.9695L15.806 16.8085C15.9442 16.9467 16.1257 17.0162 16.3072 17.0162C16.4888 17.0162 16.6703 16.9467 16.8085 16.8085C17.0857 16.5313 17.0857 16.0832 16.8085 15.806ZM6.73561 12.0531C3.80313 12.0531 1.41803 9.66805 1.41803 6.73557C1.41803 3.8031 3.80313 1.418 6.73561 1.418C9.66808 1.418 12.0532 3.8031 12.0532 6.73557C12.0532 9.66805 9.66805 12.0531 6.73561 12.0531Z" fill="white"/>
</svg>
