
<svg width="13" height="17" viewBox="0 0 13 17" fill="none" xmlns="http://www.w3.org/2000/svg">
<path d="M9.03125 6.375C9.03125 7.86914 7.83594 9.03125 6.375 9.03125C4.88086 9.03125 3.71875 7.86914 3.71875 6.375C3.71875 4.91406 4.88086 3.71875 6.375 3.71875C7.83594 3.71875 9.03125 4.91406 9.03125 6.375ZM6.375 7.96875C7.23828 7.96875 7.96875 7.27148 7.96875 6.375C7.96875 5.51172 7.23828 4.78125 6.375 4.78125C5.47852 4.78125 4.78125 5.51172 4.78125 6.375C4.78125 7.27148 5.47852 7.96875 6.375 7.96875ZM12.75 6.375C12.75 9.29688 8.86523 14.4434 7.13867 16.6016C6.74023 17.0996 5.97656 17.0996 5.57812 16.6016C3.85156 14.4434 0 9.29688 0 6.375C0 2.85547 2.82227 0 6.375 0C9.89453 0 12.75 2.85547 12.75 6.375ZM6.375 1.0625C3.41992 1.0625 1.0625 3.45312 1.0625 6.375C1.0625 6.90625 1.22852 7.60352 1.59375 8.5C1.95898 9.36328 2.45703 10.293 3.05469 11.2227C4.18359 13.0488 5.51172 14.8086 6.375 15.8711C7.20508 14.8086 8.5332 13.0488 9.66211 11.2227C10.2598 10.293 10.7578 9.36328 11.123 8.5C11.4883 7.60352 11.6875 6.90625 11.6875 6.375C11.6875 3.45312 9.29688 1.0625 6.375 1.0625Z" fill="#2E3192"/>
</svg>
