<svg width="44" height="52" viewBox="0 0 44 52" fill="none" xmlns="http://www.w3.org/2000/svg">
<path d="M25.0013 50.878C30.4119 50.1098 35.4487 47.1146 38.7898 42.6786C40.4515 40.4723 41.7712 37.6497 42.417 34.9207C42.9788 32.5462 42.9538 33.3485 42.9902 16.519L43.0234 1.16553H22.0898H1.15625L1.18946 16.519C1.21957 30.4394 1.23698 31.9687 1.37602 32.9035C2.29028 39.0502 5.55036 44.2293 10.6279 47.6013C13.6115 49.5828 16.8254 50.6921 20.6112 51.0472C21.4026 51.1214 23.9892 51.0218 25.0013 50.878Z" fill="#A1A1B1" fill-opacity="0.45"/>
<path d="M21.6701 30.5445C21.4552 30.5023 21.0721 30.3528 20.8188 30.2124C20.5654 30.072 20.1565 29.8832 19.9101 29.7928C18.2468 29.1831 16.269 27.8157 15.1443 26.4978C14.5018 25.745 13.0547 23.7614 13.0547 23.6337C13.0547 23.423 15.707 23.6068 16.4524 23.8691L16.7736 23.9821L16.776 22.7616C16.7783 21.5904 16.9806 20.2279 17.1695 20.1111C17.2774 20.0444 18.8372 20.9949 19.4538 21.5031C19.754 21.7506 20.1191 22.104 20.265 22.2885L20.5302 22.6239L20.7746 21.654C21.0065 20.7333 21.7847 18.9048 22.0016 18.7706C22.1376 18.6865 23.015 20.5111 23.384 21.6456L23.6805 22.5571L24.0996 22.0815C24.3301 21.8199 24.7694 21.4174 25.0758 21.1869C25.6782 20.7339 26.7863 20.0617 26.9307 20.0617C27.1528 20.0617 27.572 21.9485 27.572 22.9483V23.5777L27.8184 23.5152C28.3405 23.3828 29.0884 23.3011 30.034 23.2734C30.8867 23.2483 31.0213 23.264 31.0467 23.391C31.0771 23.5429 29.2943 25.9547 28.5703 26.7411C27.383 28.0306 25.6462 29.3018 24.1118 30.0044C22.8893 30.5641 22.3625 30.6807 21.6701 30.5445Z" fill="#A1A1B1"/>
<path d="M15.5117 23.0756C14.9347 22.8068 14.6675 22.4749 14.6675 22.0272C14.6675 21.2571 15.6339 21.186 15.9545 21.9324C16.0315 22.1117 16.1208 22.4903 16.153 22.7739C16.2216 23.3779 16.1912 23.3921 15.5117 23.0756Z" fill="#A1A1B1"/>
<path d="M27.8163 22.8186C27.872 22.1461 27.9995 21.7942 28.2625 21.5872C28.7166 21.2299 29.2745 21.4568 29.2745 21.9988C29.2745 22.5163 29.0709 22.7872 28.4844 23.0505C28.1919 23.1819 27.9132 23.2893 27.865 23.2893C27.8141 23.2893 27.7937 23.0922 27.8163 22.8186Z" fill="#A1A1B1"/>
<path d="M19.687 21.184C19.1372 20.7767 18.9758 20.5122 18.9723 20.0124C18.9684 19.4613 19.0719 19.3445 19.5644 19.3445C19.8557 19.3445 19.9772 19.3911 20.0841 19.5437C20.2496 19.78 20.2602 20.5709 20.1047 21.0749L19.9996 21.4156L19.687 21.184Z" fill="#A1A1B1"/>
<path d="M23.882 21.074C23.8251 20.9364 23.775 20.5559 23.7709 20.2283C23.7617 19.513 23.9297 19.2549 24.4045 19.2549C24.821 19.2549 25.0627 19.519 25.0627 19.9741C25.0627 20.2729 24.9983 20.4046 24.6874 20.742C24.149 21.3265 24.0102 21.3837 23.882 21.074Z" fill="#A1A1B1"/>
<path d="M21.6154 16.7767C21.4005 16.7345 21.0174 16.585 20.7641 16.4446C20.5107 16.3041 20.1018 16.1153 19.8554 16.025C18.1921 15.4153 16.2143 14.0479 15.0896 12.73C14.4471 11.9771 13 9.99362 13 9.86584C13 9.65519 15.6523 9.83894 16.3977 10.1012L16.7189 10.2143L16.7213 8.99376C16.7236 7.82256 16.9259 6.46012 17.1148 6.3433C17.2227 6.2766 18.7825 7.22709 19.3991 7.73527C19.6993 7.98275 20.0644 8.33617 20.2103 8.52065L20.4755 8.85608L20.7199 7.88617C20.9518 6.96549 21.73 5.13695 21.9469 5.00281C22.0829 4.91871 22.9603 6.74328 23.3293 7.87778L23.6258 8.78923L24.0449 8.31368C24.2754 8.05212 24.7147 7.64957 25.0211 7.41912C25.6235 6.96608 26.7316 6.29392 26.876 6.29392C27.0982 6.29392 27.5173 8.18068 27.5173 9.1805V9.80992L27.7637 9.74739C28.2858 9.61495 29.0337 9.53331 29.9793 9.50555C30.832 9.48052 30.9667 9.49616 30.9921 9.62315C31.0224 9.77509 29.2396 12.1868 28.5156 12.9732C27.3283 14.2627 25.5916 15.534 24.0572 16.2365C22.8346 16.7963 22.3079 16.9128 21.6154 16.7767Z" fill="#A1A1B1"/>
<path d="M15.4571 9.30776C14.8801 9.03897 14.6128 8.70708 14.6128 8.25937C14.6128 7.48932 15.5792 7.41816 15.8998 8.16461C15.9768 8.34386 16.0661 8.72249 16.0983 9.00603C16.1669 9.61004 16.1366 9.62432 15.4571 9.30776Z" fill="#A1A1B1"/>
<path d="M27.7616 9.05077C27.8173 8.37825 27.9448 8.02641 28.2078 7.81942C28.6619 7.46208 29.2198 7.68899 29.2198 8.231C29.2198 8.74846 29.0163 9.01937 28.4297 9.28273C28.1372 9.41403 27.8585 9.52146 27.8103 9.52146C27.7594 9.52146 27.739 9.32436 27.7616 9.05077Z" fill="#A1A1B1"/>
<path d="M19.6323 7.41622C19.0825 7.00885 18.9211 6.7444 18.9176 6.24459C18.9137 5.69346 19.0172 5.57666 19.5097 5.57666C19.801 5.57666 19.9226 5.62324 20.0294 5.77592C20.1949 6.01222 20.2055 6.80313 20.05 7.30707L19.9449 7.64782L19.6323 7.41622Z" fill="#A1A1B1"/>
<path d="M23.8273 7.30619C23.7704 7.1686 23.7203 6.78805 23.7162 6.46052C23.7071 5.74514 23.875 5.48706 24.3498 5.48706C24.7663 5.48706 25.008 5.75116 25.008 6.2063C25.008 6.50511 24.9436 6.63675 24.6327 6.97421C24.0943 7.55865 23.9556 7.61583 23.8273 7.30619Z" fill="#A1A1B1"/>
<path d="M21.6154 44.7767C21.4005 44.7345 21.0174 44.585 20.7641 44.4446C20.5107 44.3041 20.1018 44.1153 19.8554 44.025C18.1921 43.4153 16.2143 42.0479 15.0896 40.73C14.4471 39.9771 13 37.9936 13 37.8658C13 37.6552 15.6523 37.8389 16.3977 38.1012L16.7189 38.2143L16.7213 36.9938C16.7236 35.8226 16.9259 34.4601 17.1148 34.3433C17.2227 34.2766 18.7825 35.2271 19.3991 35.7353C19.6993 35.9827 20.0644 36.3362 20.2103 36.5207L20.4755 36.8561L20.7199 35.8862C20.9518 34.9655 21.73 33.1369 21.9469 33.0028C22.0829 32.9187 22.9603 34.7433 23.3293 35.8778L23.6258 36.7892L24.0449 36.3137C24.2754 36.0521 24.7147 35.6496 25.0211 35.4191C25.6235 34.9661 26.7316 34.2939 26.876 34.2939C27.0982 34.2939 27.5173 36.1807 27.5173 37.1805V37.8099L27.7637 37.7474C28.2858 37.615 29.0337 37.5333 29.9793 37.5056C30.832 37.4805 30.9667 37.4962 30.9921 37.6231C31.0224 37.7751 29.2396 40.1868 28.5156 40.9732C27.3283 42.2627 25.5916 43.534 24.0572 44.2365C22.8346 44.7963 22.3079 44.9128 21.6154 44.7767Z" fill="#A1A1B1"/>
<path d="M15.4571 37.3078C14.8801 37.039 14.6128 36.7071 14.6128 36.2594C14.6128 35.4893 15.5792 35.4182 15.8998 36.1646C15.9768 36.3439 16.0661 36.7225 16.0983 37.006C16.1669 37.61 16.1366 37.6243 15.4571 37.3078Z" fill="#A1A1B1"/>
<path d="M27.7616 37.0508C27.8173 36.3783 27.9448 36.0264 28.2078 35.8194C28.6619 35.4621 29.2198 35.689 29.2198 36.231C29.2198 36.7485 29.0163 37.0194 28.4297 37.2827C28.1372 37.414 27.8585 37.5215 27.8103 37.5215C27.7594 37.5215 27.739 37.3244 27.7616 37.0508Z" fill="#A1A1B1"/>
<path d="M19.6323 35.4162C19.0825 35.0089 18.9211 34.7444 18.9176 34.2446C18.9137 33.6935 19.0172 33.5767 19.5097 33.5767C19.801 33.5767 19.9226 33.6232 20.0294 33.7759C20.1949 34.0122 20.2055 34.8031 20.05 35.3071L19.9449 35.6478L19.6323 35.4162Z" fill="#A1A1B1"/>
<path d="M23.8273 35.3062C23.7704 35.1686 23.7203 34.788 23.7162 34.4605C23.7071 33.7451 23.875 33.4871 24.3498 33.4871C24.7663 33.4871 25.008 33.7512 25.008 34.2063C25.008 34.5051 24.9436 34.6367 24.6327 34.9742C24.0943 35.5587 23.9556 35.6158 23.8273 35.3062Z" fill="#A1A1B1"/>
</svg>
